SplineFontDB: 3.0
FontName: MyGranjon
FullName: MyGranjon
FamilyName: MyGranjon
Weight: Regular
Copyright: Created by trashman with FontForge 2.0 (http://fontforge.sf.net)
UComments: "2010-9-2: Created." 
Version: 001.000
ItalicAngle: 0
UnderlinePosition: -100
UnderlineWidth: 50
Ascent: 605
Descent: 395
LayerCount: 3
Layer: 0 0 "Back"  1
Layer: 1 0 "Fore"  0
Layer: 2 0 "backup"  0
NeedsXUIDChange: 1
XUID: [1021 658 797806517 16111641]
FSType: 0
OS2Version: 0
OS2_WeightWidthSlopeOnly: 0
OS2_UseTypoMetrics: 1
CreationTime: 1283410316
ModificationTime: 1283494269
OS2TypoAscent: 0
OS2TypoAOffset: 1
OS2TypoDescent: 0
OS2TypoDOffset: 1
OS2TypoLinegap: 90
OS2WinAscent: 0
OS2WinAOffset: 1
OS2WinDescent: 0
OS2WinDOffset: 1
HheadAscent: 0
HheadAOffset: 1
HheadDescent: 0
HheadDOffset: 1
MarkAttachClasses: 1
DEI: 91125
LangName: 1033 
Encoding: UnicodeBmp
UnicodeInterp: none
NameList: Adobe Glyph List
DisplaySize: -48
AntiAlias: 1
FitToEm: 1
WinInfo: 32 16 4
BeginPrivate: 4
StdHW 4 [19]
StemSnapH 4 [19]
StdVW 4 [56]
StemSnapV 4 [56]
EndPrivate
BeginChars: 65536 53

StartChar: a
Encoding: 97 97 0
Width: 366
VWidth: 0
Flags: W
HStem: -8 36<100 178.071 281.5 335.48> 235 21G<66 83> 332 18<146.763 213.566>
VStem: 42 62<35.3364 117.019> 238 56<24.2346 45 51.4169 172 183.062 320.399>
DStem2: 137 159 148 142 0.961365 0.275276<-16.3505 100.676>
LayerCount: 3
Fore
SplineSet
186 350 m 0
 292 350 294 309 294 202 c 2
 294 58 l 2
 294 33 303 24 315 24 c 0
 328 24 340 35 340 35 c 1
 349 22 l 1
 338 11 318 -7 294 -7 c 0
 269 -7 249 9 241 30 c 0
 238 38 238 45 238 45 c 1
 212 28 162 -8 113 -8 c 0
 87 -8 42 7 42 60 c 0
 42 117 90 143 137 159 c 0
 170 171 206 180 238 189 c 1
 238 257 l 2
 238 293 234 332 178 332 c 0
 145 332 123 305 112 283 c 0
 100 259 93 235 73 235 c 0
 59 235 50 247 50 258 c 0
 50 271 59 285 71 297 c 0
 98 326 150 350 186 350 c 0
153 28 m 0
 190 28 238 66 238 66 c 1
 238 172 l 1
 238 172 174 155 148 142 c 0
 129 132 104 108 104 81 c 0
 104 43 125 28 153 28 c 0
EndSplineSet
Validated: 1
Layer: 2
SplineSet
186 350 m 4
 292 350 296 309 296 202 c 6
 296 76 l 6
 296 39 303 27 315 27 c 4
 321 27 327 30 335 34 c 4
 337 35 339 36 342 36 c 4
 345 36 348 33 348 30 c 4
 348 6 315 -10 296 -10 c 4
 276 -10 244 4 235 42 c 5
 209 25 162 -10 113 -10 c 4
 87 -10 40 7 40 60 c 4
 40 148 164 169 236 189 c 5
 236 257 l 6
 236 293 234 332 178 332 c 4
 145 332 123 305 112 283 c 4
 100 259 93 235 73 235 c 4
 59 235 50 247 50 258 c 4
 50 271 59 285 71 297 c 4
 98 326 150 350 186 350 c 4
104 81 m 4
 104 41 133 28 157 28 c 4
 188 28 218 55 236 67 c 5
 236 170 l 5
 207 164 174 153 148 140 c 4
 129 130 104 108 104 81 c 4
EndSplineSet
EndChar

StartChar: b
Encoding: 98 98 1
Width: 401
VWidth: 0
Flags: W
HStem: -8 22<163.101 251.605> 324 28<168.025 254.044>
VStem: 59 56<42.0385 300.487 306 553.856> 312 63<90.4267 269.688>
LayerCount: 3
Fore
SplineSet
59 513 m 2
 59 544 54 551 43 554 c 0
 35 556 18 560 18 560 c 1
 18 572 l 1
 105 605 l 1
 115 605 l 1
 115 306 l 1
 133 317 156 335 183 345 c 0
 196 350 211 352 226 352 c 0
 324 352 375 275 375 182 c 0
 375 122 350 68 308 32 c 0
 281 8 246 -8 207 -8 c 0
 194 -8 180 -6 166 -3 c 0
 143 3 123 10 102 10 c 0
 84 10 73 -4 62 -4 c 0
 57 -4 59 0 59 6 c 2
 59 513 l 2
115 281 m 1
 114.982103861 89.5331025154 l 2
 114.982103861 49.1451803796 155.71662933 14 215 14 c 0
 275 14 312 87 312 168 c 0
 312 253 277 324 208 324 c 0
 150 324 115 281 115 281 c 1
EndSplineSet
Validated: 524289
Layer: 2
SplineSet
56 513 m 6
 56 544 52 550 41 553 c 4
 30 557 15 558 15 565 c 4
 15 573 24 576 40 582 c 4
 51 586 66 592 83 598 c 4
 90 601 97 604 105 607 c 5
 108 607 114 605 115 601 c 5
 115 306 l 5
 115 306 168 353 226 353 c 4
 324 353 377 275 377 182 c 4
 377 88 305 -9 212 -9 c 4
 168 -9 136 10 102 10 c 4
 84 10 82 -4 62 -4 c 4
 57 -4 56 0 56 6 c 6
 56 513 l 6
115 281 m 5
 114 101 l 6
 114 56 155 14 215 14 c 4
 275 14 312 87 312 168 c 4
 312 252.927734375 276.723632812 324 208 324 c 4
 150 324 115 281 115 281 c 5
EndSplineSet
EndChar

StartChar: c
Encoding: 99 99 3
Width: 345
VWidth: 0
Flags: W
HStem: -10 39<141.487 253.594> 329 22<146.541 212.428>
VStem: 29 55<90.4302 252.622>
LayerCount: 3
Fore
SplineSet
29 156 m 0
 29 221 54 276 96 311 c 0
 124 334 160 351 205 351 c 0
 252 351 302 335 302 306 c 0
 302 283 284 278 274 278 c 0
 259 278 248 292 235 301 c 0
 215 316 206 329 177 329 c 0
 120 329 84 254 84 189 c 0
 84 103 123 29 202 29 c 0
 263 29 299 73 299 73 c 1
 312 63 l 1
 312 63 270 -10 181 -10 c 0
 101 -10 29 51 29 156 c 0
EndSplineSet
Validated: 1
Layer: 2
SplineSet
28 159 m 4
 28 273 111 356 202 356 c 4
 253 356 304 334 304 309 c 4
 304 298 288 276 276 276 c 4
 264 276 250 293 235 304 c 4
 216 318 202 330 184 330 c 4
 119 330 87 262 87 191 c 4
 87 100 127 34 202 34 c 4
 238 34 269 51 288 67 c 4
 297 75 300 77 306 72 c 4
 309 69 310 66 310 63 c 4
 310 55 300 45 293 38 c 4
 261 6 213 -9 181 -9 c 4
 101 -9 28 54 28 159 c 4
EndSplineSet
EndChar

StartChar: d
Encoding: 100 100 4
Width: 423
VWidth: 0
Flags: W
HStem: -8 26<145.979 235.592> 13 12<363.15 393> 334 18<152.845 239.653>
VStem: 19 60<80.5363 262.585> 298 56<27.3438 48 50.6604 300.77 313 549.854>
LayerCount: 3
Fore
SplineSet
304 -7 m 1x78
 298 -7 l 1
 298 48 l 1
 298 48 250 -8 172 -8 c 0xb8
 135 -8 99 5 68 36 c 0
 31 74 19 120 19 169 c 0
 19 206 27 244 48 274 c 0
 82 323 143 352 197 352 c 0
 257 352 298 313 298 313 c 1
 298 529 l 2
 298 536 295 547 286 550 c 0
 270 555 256 558 256 558 c 1
 256 571 l 1
 343 605 l 1
 354 605 l 1
 354 33 l 2
 354 25 360 24 365 25 c 2
 393 31 l 1
 395 13 l 1
 304 -7 l 1x78
79 183 m 0
 79 115 104 18 198 18 c 0
 255 18 298 71 298 71 c 1
 298 248 l 2
 298 310 234 334 197 334 c 0
 129 334 79 284 79 183 c 0
EndSplineSet
Validated: 1
EndChar

StartChar: e
Encoding: 101 101 5
Width: 349
VWidth: 0
Flags: W
HStem: -9 36<147.149 257.245> 230 19<93 266> 333 18<149.764 225.015>
VStem: 34 50<93.4346 226.31> 266 54<249 296.297>
LayerCount: 3
Fore
SplineSet
34 165 m 0
 34 272 83 351 193 351 c 0
 226 351 258 339 279 320 c 0
 309 292 320 255 320 237 c 0
 320 231 318 230 311 230 c 2
 88 230 l 1
 88 230 84 201 84 188 c 0
 84 97 130 27 205 27 c 0
 255 27 282 45 308 63 c 1
 318 52 l 1
 287 23 243 -9 181 -9 c 0
 88 -9 34 69 34 165 c 0
93 249 m 1
 266 249 l 1
 262 330 202 333 184 333 c 0
 137 333 102 291 93 249 c 1
EndSplineSet
Validated: 1
EndChar

StartChar: f
Encoding: 102 102 6
Width: 270
VWidth: 0
Flags: W
HStem: -1 19<19 71.1677 155.643 218> 328 19<30 85 141 229> 576 29<185.824 259.568>
VStem: 85 56<23.8296 328 347 492.743>
LayerCount: 3
Fore
SplineSet
19 -1 m 1
 19 18 l 1
 53 18 85 19 85 61 c 2
 85 328 l 1
 30 328 l 1
 30 347 l 1
 85 347 l 1
 85 375 87 488 137 551 c 0
 163 583 202 605 242 605 c 0
 276 605 309 592 309 563 c 0
 309 551 302 539 286 539 c 0
 271 539 254 551 246 559 c 0
 236 569 224 576 211 576 c 0
 155 576 141 485 141 425 c 2
 141 347 l 1
 229 347 l 1
 229 328 l 1
 141 328 l 1
 141 61 l 2
 141 22 170 18 204 18 c 2
 218 18 l 1
 218 -1 l 1
 218 -1 163 0 113 -0 c 0
 67 0 19 -1 19 -1 c 1
EndSplineSet
Validated: 1
EndChar

StartChar: g
Encoding: 103 103 7
Width: 373
VWidth: 0
Flags: HW
HStem: -215 23<112.652 233.424> -36 51<104.383 271.961> 102 16<151.362 212.031> 303 34<303.883 359.91> 310 15<287.281 308.664> 334 17<142.433 208.337>
VStem: 7 58<-163.943 -87.3723> 53 46<26.0725 73.0266 157.398 303.616> 254 49<154.752 301.908> 301 42<-139.815 -62.2781>
LayerCount: 3
Fore
SplineSet
254 222 m 0xe480
 254 294 216 334 180 334 c 0
 128 334 102 301 102 232 c 0
 102 174 130 118 182 118 c 0
 233 118 254 166 254 222 c 0xe480
301 -97 m 0xe240
 301 -73 284 -58 252 -52 c 0
 212 -45 158 -41 127 -36 c 1
 114 -48 65 -73 65 -121 c 0
 65 -159 109 -192 171 -192 c 0
 188 -192 206 -191 223 -185 c 0
 265 -170 301 -137 301 -97 c 0xe240
176 102 m 0
 165 102 141 105 141 105 c 1
 141 105 99 87 99 53 c 0xe980
 99 23 140 18 174 15 c 0
 220 11 270 15 304 -1 c 0
 329 -13 343 -34 343 -64 c 0
 343 -163 262 -215 156 -215 c 0
 86 -215 7 -188 7 -134 c 0xea40
 7 -95 47 -69 77 -52 c 0
 95 -42 109 -32 109 -32 c 1
 109 -32 53 -11 53 35 c 0
 53 45 57 55 67 66 c 0
 84 84 126 110 126 110 c 1
 126 110 50 146 50 230 c 0
 50 299 103 351 180 351 c 0
 228 351 271 325 271 325 c 1xed
 300 327 315 337 338 337 c 0
 346 337 360 335 360 318 c 0
 360 306 353 303 344 303 c 0xf1
 331 303 322 310 303 310 c 0
 298 310 293 309 287 307 c 1
 287 307 303 283 303 234 c 0xe980
 303 161 259 102 176 102 c 0
EndSplineSet
EndChar

StartChar: h
Encoding: 104 104 8
Width: 422
VWidth: 0
Flags: HWO
HStem: 152 68<202.33 265.67>
VStem: 200 68<154.33 217.67>
LayerCount: 3
Fore
SplineSet
200 186 m 0
 200 205 215 220 234 220 c 0
 253 220 268 205 268 186 c 0
 268 167 253 152 234 152 c 0
 215 152 200 167 200 186 c 0
EndSplineSet
Validated: 1
EndChar

StartChar: i
Encoding: 105 105 9
Width: 422
VWidth: 0
Flags: W
HStem: 152 68<202.33 265.67>
VStem: 200 68<154.33 217.67>
LayerCount: 3
Fore
SplineSet
200 186 m 4
 200 205 215 220 234 220 c 4
 253 220 268 205 268 186 c 4
 268 167 253 152 234 152 c 4
 215 152 200 167 200 186 c 4
EndSplineSet
Validated: 1
EndChar

StartChar: j
Encoding: 106 106 10
Width: 422
VWidth: 0
Flags: W
HStem: 152 68<202.33 265.67>
VStem: 200 68<154.33 217.67>
LayerCount: 3
Fore
SplineSet
200 186 m 4
 200 205 215 220 234 220 c 4
 253 220 268 205 268 186 c 4
 268 167 253 152 234 152 c 4
 215 152 200 167 200 186 c 4
EndSplineSet
Validated: 1
EndChar

StartChar: k
Encoding: 107 107 11
Width: 422
VWidth: 0
Flags: W
HStem: 152 68<202.33 265.67>
VStem: 200 68<154.33 217.67>
LayerCount: 3
Fore
SplineSet
200 186 m 4
 200 205 215 220 234 220 c 4
 253 220 268 205 268 186 c 4
 268 167 253 152 234 152 c 4
 215 152 200 167 200 186 c 4
EndSplineSet
Validated: 1
EndChar

StartChar: l
Encoding: 108 108 12
Width: 422
VWidth: 0
Flags: W
HStem: 152 68<202.33 265.67>
VStem: 200 68<154.33 217.67>
LayerCount: 3
Fore
SplineSet
200 186 m 4
 200 205 215 220 234 220 c 4
 253 220 268 205 268 186 c 4
 268 167 253 152 234 152 c 4
 215 152 200 167 200 186 c 4
EndSplineSet
Validated: 1
EndChar

StartChar: m
Encoding: 109 109 13
Width: 422
VWidth: 0
Flags: W
HStem: 152 68<202.33 265.67>
VStem: 200 68<154.33 217.67>
LayerCount: 3
Fore
SplineSet
200 186 m 4
 200 205 215 220 234 220 c 4
 253 220 268 205 268 186 c 4
 268 167 253 152 234 152 c 4
 215 152 200 167 200 186 c 4
EndSplineSet
Validated: 1
EndChar

StartChar: n
Encoding: 110 110 14
Width: 422
VWidth: 0
Flags: W
HStem: 152 68<202.33 265.67>
VStem: 200 68<154.33 217.67>
LayerCount: 3
Fore
SplineSet
200 186 m 4
 200 205 215 220 234 220 c 4
 253 220 268 205 268 186 c 4
 268 167 253 152 234 152 c 4
 215 152 200 167 200 186 c 4
EndSplineSet
Validated: 1
EndChar

StartChar: o
Encoding: 111 111 15
Width: 422
VWidth: 0
Flags: W
HStem: 152 68<202.33 265.67>
VStem: 200 68<154.33 217.67>
LayerCount: 3
Fore
SplineSet
200 186 m 4
 200 205 215 220 234 220 c 4
 253 220 268 205 268 186 c 4
 268 167 253 152 234 152 c 4
 215 152 200 167 200 186 c 4
EndSplineSet
Validated: 1
EndChar

StartChar: p
Encoding: 112 112 16
Width: 422
VWidth: 0
Flags: W
HStem: 152 68<202.33 265.67>
VStem: 200 68<154.33 217.67>
LayerCount: 3
Fore
SplineSet
200 186 m 4
 200 205 215 220 234 220 c 4
 253 220 268 205 268 186 c 4
 268 167 253 152 234 152 c 4
 215 152 200 167 200 186 c 4
EndSplineSet
Validated: 1
EndChar

StartChar: q
Encoding: 113 113 17
Width: 422
VWidth: 0
Flags: W
HStem: 152 68<202.33 265.67>
VStem: 200 68<154.33 217.67>
LayerCount: 3
Fore
SplineSet
200 186 m 4
 200 205 215 220 234 220 c 4
 253 220 268 205 268 186 c 4
 268 167 253 152 234 152 c 4
 215 152 200 167 200 186 c 4
EndSplineSet
Validated: 1
EndChar

StartChar: r
Encoding: 114 114 18
Width: 422
VWidth: 0
Flags: W
HStem: 152 68<202.33 265.67>
VStem: 200 68<154.33 217.67>
LayerCount: 3
Fore
SplineSet
200 186 m 4
 200 205 215 220 234 220 c 4
 253 220 268 205 268 186 c 4
 268 167 253 152 234 152 c 4
 215 152 200 167 200 186 c 4
EndSplineSet
Validated: 1
EndChar

StartChar: s
Encoding: 115 115 19
Width: 422
VWidth: 0
Flags: W
HStem: 152 68<202.33 265.67>
VStem: 200 68<154.33 217.67>
LayerCount: 3
Fore
SplineSet
200 186 m 4
 200 205 215 220 234 220 c 4
 253 220 268 205 268 186 c 4
 268 167 253 152 234 152 c 4
 215 152 200 167 200 186 c 4
EndSplineSet
Validated: 1
EndChar

StartChar: t
Encoding: 116 116 20
Width: 422
VWidth: 0
Flags: W
HStem: 152 68<202.33 265.67>
VStem: 200 68<154.33 217.67>
LayerCount: 3
Fore
SplineSet
200 186 m 4
 200 205 215 220 234 220 c 4
 253 220 268 205 268 186 c 4
 268 167 253 152 234 152 c 4
 215 152 200 167 200 186 c 4
EndSplineSet
Validated: 1
EndChar

StartChar: u
Encoding: 117 117 21
Width: 422
VWidth: 0
Flags: W
HStem: 152 68<202.33 265.67>
VStem: 200 68<154.33 217.67>
LayerCount: 3
Fore
SplineSet
200 186 m 4
 200 205 215 220 234 220 c 4
 253 220 268 205 268 186 c 4
 268 167 253 152 234 152 c 4
 215 152 200 167 200 186 c 4
EndSplineSet
Validated: 1
EndChar

StartChar: v
Encoding: 118 118 22
Width: 422
VWidth: 0
Flags: W
HStem: 152 68<202.33 265.67>
VStem: 200 68<154.33 217.67>
LayerCount: 3
Fore
SplineSet
200 186 m 4
 200 205 215 220 234 220 c 4
 253 220 268 205 268 186 c 4
 268 167 253 152 234 152 c 4
 215 152 200 167 200 186 c 4
EndSplineSet
Validated: 1
EndChar

StartChar: w
Encoding: 119 119 23
Width: 422
VWidth: 0
Flags: W
HStem: 152 68<202.33 265.67>
VStem: 200 68<154.33 217.67>
LayerCount: 3
Fore
SplineSet
200 186 m 4
 200 205 215 220 234 220 c 4
 253 220 268 205 268 186 c 4
 268 167 253 152 234 152 c 4
 215 152 200 167 200 186 c 4
EndSplineSet
Validated: 1
EndChar

StartChar: x
Encoding: 120 120 24
Width: 422
VWidth: 0
Flags: W
HStem: 152 68<202.33 265.67>
VStem: 200 68<154.33 217.67>
LayerCount: 3
Fore
SplineSet
200 186 m 4
 200 205 215 220 234 220 c 4
 253 220 268 205 268 186 c 4
 268 167 253 152 234 152 c 4
 215 152 200 167 200 186 c 4
EndSplineSet
Validated: 1
EndChar

StartChar: y
Encoding: 121 121 25
Width: 422
VWidth: 0
Flags: W
HStem: 152 68<202.33 265.67>
VStem: 200 68<154.33 217.67>
LayerCount: 3
Fore
SplineSet
200 186 m 4
 200 205 215 220 234 220 c 4
 253 220 268 205 268 186 c 4
 268 167 253 152 234 152 c 4
 215 152 200 167 200 186 c 4
EndSplineSet
Validated: 1
EndChar

StartChar: z
Encoding: 122 122 26
Width: 422
VWidth: 0
Flags: W
HStem: 152 68<202.33 265.67>
VStem: 200 68<154.33 217.67>
LayerCount: 3
Fore
SplineSet
200 186 m 4
 200 205 215 220 234 220 c 4
 253 220 268 205 268 186 c 4
 268 167 253 152 234 152 c 4
 215 152 200 167 200 186 c 4
EndSplineSet
Validated: 1
EndChar

